<mxfile host="app.diagrams.net" modified="2023-12-11T19:59:58.443Z" agent="Mozilla/5.0 (Macintosh; Intel Mac OS X 10_15_7) AppleWebKit/537.36 (KHTML, like Gecko) Chrome/120.0.0.0 Safari/537.36" etag="LNjKukeO0IYE5uSUdgaN" version="22.1.7" type="device">
  <diagram id="C5RBs43oDa-KdzZeNtuy" name="Page-1">
    <mxGraphModel dx="1663" dy="747" grid="1" gridSize="10" guides="1" tooltips="1" connect="1" arrows="1" fold="1" page="1" pageScale="1" pageWidth="827" pageHeight="1169" math="0" shadow="0">
      <root>
        <mxCell id="WIyWlLk6GJQsqaUBKTNV-0" />
        <mxCell id="WIyWlLk6GJQsqaUBKTNV-1" parent="WIyWlLk6GJQsqaUBKTNV-0" />
        <mxCell id="zkfFHV4jXpPFQw0GAbJ--0" value="Trainer" style="swimlane;fontStyle=2;align=center;verticalAlign=top;childLayout=stackLayout;horizontal=1;startSize=26;horizontalStack=0;resizeParent=1;resizeLast=0;collapsible=1;marginBottom=0;rounded=0;shadow=0;strokeWidth=1;" parent="WIyWlLk6GJQsqaUBKTNV-1" vertex="1">
          <mxGeometry x="-280" y="460" width="160" height="120" as="geometry">
            <mxRectangle x="230" y="140" width="160" height="26" as="alternateBounds" />
          </mxGeometry>
        </mxCell>
        <mxCell id="zkfFHV4jXpPFQw0GAbJ--1" value="- name : String" style="text;align=left;verticalAlign=top;spacingLeft=4;spacingRight=4;overflow=hidden;rotatable=0;points=[[0,0.5],[1,0.5]];portConstraint=eastwest;" parent="zkfFHV4jXpPFQw0GAbJ--0" vertex="1">
          <mxGeometry y="26" width="160" height="26" as="geometry" />
        </mxCell>
        <mxCell id="zkfFHV4jXpPFQw0GAbJ--4" value="" style="line;html=1;strokeWidth=1;align=left;verticalAlign=middle;spacingTop=-1;spacingLeft=3;spacingRight=3;rotatable=0;labelPosition=right;points=[];portConstraint=eastwest;" parent="zkfFHV4jXpPFQw0GAbJ--0" vertex="1">
          <mxGeometry y="52" width="160" height="8" as="geometry" />
        </mxCell>
        <mxCell id="zkfFHV4jXpPFQw0GAbJ--5" value="- Walk()" style="text;align=left;verticalAlign=top;spacingLeft=4;spacingRight=4;overflow=hidden;rotatable=0;points=[[0,0.5],[1,0.5]];portConstraint=eastwest;" parent="zkfFHV4jXpPFQw0GAbJ--0" vertex="1">
          <mxGeometry y="60" width="160" height="26" as="geometry" />
        </mxCell>
        <mxCell id="fQ_7sBPIyco7SPZkvf4i-10" value="- Fight()" style="text;align=left;verticalAlign=top;spacingLeft=4;spacingRight=4;overflow=hidden;rotatable=0;points=[[0,0.5],[1,0.5]];portConstraint=eastwest;" parent="zkfFHV4jXpPFQw0GAbJ--0" vertex="1">
          <mxGeometry y="86" width="160" height="26" as="geometry" />
        </mxCell>
        <mxCell id="fQ_7sBPIyco7SPZkvf4i-35" style="edgeStyle=orthogonalEdgeStyle;rounded=0;orthogonalLoop=1;jettySize=auto;html=1;endArrow=open;endFill=0;endSize=10;dashed=1;" parent="WIyWlLk6GJQsqaUBKTNV-1" source="fQ_7sBPIyco7SPZkvf4i-0" target="fQ_7sBPIyco7SPZkvf4i-27" edge="1">
          <mxGeometry relative="1" as="geometry">
            <Array as="points">
              <mxPoint x="280" y="441" />
            </Array>
          </mxGeometry>
        </mxCell>
        <mxCell id="fQ_7sBPIyco7SPZkvf4i-36" value="- type" style="edgeLabel;html=1;align=center;verticalAlign=middle;resizable=0;points=[];" parent="fQ_7sBPIyco7SPZkvf4i-35" vertex="1" connectable="0">
          <mxGeometry x="0.6508" y="-1" relative="1" as="geometry">
            <mxPoint x="-19" y="3" as="offset" />
          </mxGeometry>
        </mxCell>
        <mxCell id="fQ_7sBPIyco7SPZkvf4i-37" value="1" style="edgeLabel;html=1;align=center;verticalAlign=middle;resizable=0;points=[];" parent="fQ_7sBPIyco7SPZkvf4i-35" vertex="1" connectable="0">
          <mxGeometry x="0.823" y="-1" relative="1" as="geometry">
            <mxPoint x="11" as="offset" />
          </mxGeometry>
        </mxCell>
        <mxCell id="fQ_7sBPIyco7SPZkvf4i-0" value="Pokemon" style="swimlane;fontStyle=2;align=center;verticalAlign=top;childLayout=stackLayout;horizontal=1;startSize=26;horizontalStack=0;resizeParent=1;resizeLast=0;collapsible=1;marginBottom=0;rounded=0;shadow=0;strokeWidth=1;" parent="WIyWlLk6GJQsqaUBKTNV-1" vertex="1">
          <mxGeometry y="320" width="160" height="242" as="geometry">
            <mxRectangle x="230" y="140" width="160" height="26" as="alternateBounds" />
          </mxGeometry>
        </mxCell>
        <mxCell id="fQ_7sBPIyco7SPZkvf4i-1" value="- id : int" style="text;align=left;verticalAlign=top;spacingLeft=4;spacingRight=4;overflow=hidden;rotatable=0;points=[[0,0.5],[1,0.5]];portConstraint=eastwest;" parent="fQ_7sBPIyco7SPZkvf4i-0" vertex="1">
          <mxGeometry y="26" width="160" height="26" as="geometry" />
        </mxCell>
        <mxCell id="fQ_7sBPIyco7SPZkvf4i-5" value="- name : String" style="text;align=left;verticalAlign=top;spacingLeft=4;spacingRight=4;overflow=hidden;rotatable=0;points=[[0,0.5],[1,0.5]];portConstraint=eastwest;" parent="fQ_7sBPIyco7SPZkvf4i-0" vertex="1">
          <mxGeometry y="52" width="160" height="26" as="geometry" />
        </mxCell>
        <mxCell id="fQ_7sBPIyco7SPZkvf4i-7" value="- hp : int" style="text;align=left;verticalAlign=top;spacingLeft=4;spacingRight=4;overflow=hidden;rotatable=0;points=[[0,0.5],[1,0.5]];portConstraint=eastwest;" parent="fQ_7sBPIyco7SPZkvf4i-0" vertex="1">
          <mxGeometry y="78" width="160" height="26" as="geometry" />
        </mxCell>
        <mxCell id="fQ_7sBPIyco7SPZkvf4i-6" value="- attack : int" style="text;align=left;verticalAlign=top;spacingLeft=4;spacingRight=4;overflow=hidden;rotatable=0;points=[[0,0.5],[1,0.5]];portConstraint=eastwest;" parent="fQ_7sBPIyco7SPZkvf4i-0" vertex="1">
          <mxGeometry y="104" width="160" height="26" as="geometry" />
        </mxCell>
        <mxCell id="fQ_7sBPIyco7SPZkvf4i-4" value="- level : int" style="text;align=left;verticalAlign=top;spacingLeft=4;spacingRight=4;overflow=hidden;rotatable=0;points=[[0,0.5],[1,0.5]];portConstraint=eastwest;" parent="fQ_7sBPIyco7SPZkvf4i-0" vertex="1">
          <mxGeometry y="130" width="160" height="26" as="geometry" />
        </mxCell>
        <mxCell id="fQ_7sBPIyco7SPZkvf4i-2" value="" style="line;html=1;strokeWidth=1;align=left;verticalAlign=middle;spacingTop=-1;spacingLeft=3;spacingRight=3;rotatable=0;labelPosition=right;points=[];portConstraint=eastwest;" parent="fQ_7sBPIyco7SPZkvf4i-0" vertex="1">
          <mxGeometry y="156" width="160" height="8" as="geometry" />
        </mxCell>
        <mxCell id="fQ_7sBPIyco7SPZkvf4i-3" value="- Eat()" style="text;align=left;verticalAlign=top;spacingLeft=4;spacingRight=4;overflow=hidden;rotatable=0;points=[[0,0.5],[1,0.5]];portConstraint=eastwest;" parent="fQ_7sBPIyco7SPZkvf4i-0" vertex="1">
          <mxGeometry y="164" width="160" height="26" as="geometry" />
        </mxCell>
        <mxCell id="fQ_7sBPIyco7SPZkvf4i-9" value="- Evolve()" style="text;align=left;verticalAlign=top;spacingLeft=4;spacingRight=4;overflow=hidden;rotatable=0;points=[[0,0.5],[1,0.5]];portConstraint=eastwest;" parent="fQ_7sBPIyco7SPZkvf4i-0" vertex="1">
          <mxGeometry y="190" width="160" height="26" as="geometry" />
        </mxCell>
        <mxCell id="fQ_7sBPIyco7SPZkvf4i-12" value="TallGrass" style="swimlane;fontStyle=2;align=center;verticalAlign=top;childLayout=stackLayout;horizontal=1;startSize=26;horizontalStack=0;resizeParent=1;resizeLast=0;collapsible=1;marginBottom=0;rounded=0;shadow=0;strokeWidth=1;" parent="WIyWlLk6GJQsqaUBKTNV-1" vertex="1">
          <mxGeometry x="-260" y="720" width="140" height="140" as="geometry">
            <mxRectangle x="230" y="140" width="160" height="26" as="alternateBounds" />
          </mxGeometry>
        </mxCell>
        <mxCell id="fQ_7sBPIyco7SPZkvf4i-14" value="" style="line;html=1;strokeWidth=1;align=left;verticalAlign=middle;spacingTop=-1;spacingLeft=3;spacingRight=3;rotatable=0;labelPosition=right;points=[];portConstraint=eastwest;" parent="fQ_7sBPIyco7SPZkvf4i-12" vertex="1">
          <mxGeometry y="26" width="140" height="8" as="geometry" />
        </mxCell>
        <mxCell id="fQ_7sBPIyco7SPZkvf4i-15" value="- SpawnPokemon()" style="text;align=left;verticalAlign=top;spacingLeft=4;spacingRight=4;overflow=hidden;rotatable=0;points=[[0,0.5],[1,0.5]];portConstraint=eastwest;" parent="fQ_7sBPIyco7SPZkvf4i-12" vertex="1">
          <mxGeometry y="34" width="140" height="26" as="geometry" />
        </mxCell>
        <mxCell id="fQ_7sBPIyco7SPZkvf4i-17" value="p = x / 187.5" style="ellipse;shape=cloud;whiteSpace=wrap;html=1;" parent="fQ_7sBPIyco7SPZkvf4i-12" vertex="1">
          <mxGeometry y="60" width="140" height="60" as="geometry" />
        </mxCell>
        <mxCell id="fQ_7sBPIyco7SPZkvf4i-18" style="edgeStyle=orthogonalEdgeStyle;rounded=0;orthogonalLoop=1;jettySize=auto;html=1;startArrow=diamondThin;startFill=1;strokeWidth=1;endArrow=open;endFill=0;endSize=10;startSize=12;" parent="WIyWlLk6GJQsqaUBKTNV-1" source="zkfFHV4jXpPFQw0GAbJ--5" target="fQ_7sBPIyco7SPZkvf4i-0" edge="1">
          <mxGeometry relative="1" as="geometry" />
        </mxCell>
        <mxCell id="fQ_7sBPIyco7SPZkvf4i-19" value="0..6" style="edgeLabel;html=1;align=center;verticalAlign=middle;resizable=0;points=[];" parent="fQ_7sBPIyco7SPZkvf4i-18" vertex="1" connectable="0">
          <mxGeometry x="0.6317" y="3" relative="1" as="geometry">
            <mxPoint x="9" y="12" as="offset" />
          </mxGeometry>
        </mxCell>
        <mxCell id="fQ_7sBPIyco7SPZkvf4i-58" value="- pokemons" style="edgeLabel;html=1;align=center;verticalAlign=middle;resizable=0;points=[];" parent="fQ_7sBPIyco7SPZkvf4i-18" vertex="1" connectable="0">
          <mxGeometry x="0.5765" y="2" relative="1" as="geometry">
            <mxPoint y="-9" as="offset" />
          </mxGeometry>
        </mxCell>
        <mxCell id="B3x00GDOqrIYNqNBGqu6-0" value="1" style="edgeLabel;html=1;align=center;verticalAlign=middle;resizable=0;points=[];" vertex="1" connectable="0" parent="fQ_7sBPIyco7SPZkvf4i-18">
          <mxGeometry x="-0.8084" relative="1" as="geometry">
            <mxPoint y="-13" as="offset" />
          </mxGeometry>
        </mxCell>
        <mxCell id="fQ_7sBPIyco7SPZkvf4i-32" style="edgeStyle=orthogonalEdgeStyle;rounded=0;orthogonalLoop=1;jettySize=auto;html=1;endArrow=open;endFill=0;endSize=10;dashed=1;" parent="WIyWlLk6GJQsqaUBKTNV-1" source="fQ_7sBPIyco7SPZkvf4i-20" target="fQ_7sBPIyco7SPZkvf4i-27" edge="1">
          <mxGeometry relative="1" as="geometry">
            <Array as="points">
              <mxPoint x="200" y="680" />
              <mxPoint x="200" y="680" />
            </Array>
          </mxGeometry>
        </mxCell>
        <mxCell id="fQ_7sBPIyco7SPZkvf4i-33" value="- type" style="edgeLabel;html=1;align=center;verticalAlign=middle;resizable=0;points=[];" parent="fQ_7sBPIyco7SPZkvf4i-32" vertex="1" connectable="0">
          <mxGeometry x="0.4879" y="1" relative="1" as="geometry">
            <mxPoint x="6" y="9" as="offset" />
          </mxGeometry>
        </mxCell>
        <mxCell id="fQ_7sBPIyco7SPZkvf4i-34" value="1" style="edgeLabel;html=1;align=center;verticalAlign=middle;resizable=0;points=[];" parent="fQ_7sBPIyco7SPZkvf4i-32" vertex="1" connectable="0">
          <mxGeometry x="0.7561" y="2" relative="1" as="geometry">
            <mxPoint x="6" y="-10" as="offset" />
          </mxGeometry>
        </mxCell>
        <mxCell id="fQ_7sBPIyco7SPZkvf4i-20" value="RareCandy" style="swimlane;fontStyle=2;align=center;verticalAlign=top;childLayout=stackLayout;horizontal=1;startSize=26;horizontalStack=0;resizeParent=1;resizeLast=0;collapsible=1;marginBottom=0;rounded=0;shadow=0;strokeWidth=1;" parent="WIyWlLk6GJQsqaUBKTNV-1" vertex="1">
          <mxGeometry x="-80" y="640" width="120" height="80" as="geometry">
            <mxRectangle x="230" y="140" width="160" height="26" as="alternateBounds" />
          </mxGeometry>
        </mxCell>
        <mxCell id="fQ_7sBPIyco7SPZkvf4i-22" value="" style="line;html=1;strokeWidth=1;align=left;verticalAlign=middle;spacingTop=-1;spacingLeft=3;spacingRight=3;rotatable=0;labelPosition=right;points=[];portConstraint=eastwest;" parent="fQ_7sBPIyco7SPZkvf4i-20" vertex="1">
          <mxGeometry y="26" width="120" height="8" as="geometry" />
        </mxCell>
        <mxCell id="fQ_7sBPIyco7SPZkvf4i-25" style="edgeStyle=orthogonalEdgeStyle;rounded=0;orthogonalLoop=1;jettySize=auto;html=1;startArrow=diamondThin;startFill=1;endArrow=open;endFill=0;endSize=10;startSize=12;" parent="WIyWlLk6GJQsqaUBKTNV-1" source="fQ_7sBPIyco7SPZkvf4i-10" target="fQ_7sBPIyco7SPZkvf4i-20" edge="1">
          <mxGeometry relative="1" as="geometry">
            <Array as="points">
              <mxPoint x="-20" y="570" />
            </Array>
          </mxGeometry>
        </mxCell>
        <mxCell id="fQ_7sBPIyco7SPZkvf4i-26" value="0..*" style="edgeLabel;html=1;align=center;verticalAlign=middle;resizable=0;points=[];" parent="fQ_7sBPIyco7SPZkvf4i-25" vertex="1" connectable="0">
          <mxGeometry x="0.6676" y="1" relative="1" as="geometry">
            <mxPoint as="offset" />
          </mxGeometry>
        </mxCell>
        <mxCell id="fQ_7sBPIyco7SPZkvf4i-56" value="- candies" style="edgeLabel;html=1;align=center;verticalAlign=middle;resizable=0;points=[];" parent="fQ_7sBPIyco7SPZkvf4i-25" vertex="1" connectable="0">
          <mxGeometry x="-0.3867" y="-1" relative="1" as="geometry">
            <mxPoint y="9" as="offset" />
          </mxGeometry>
        </mxCell>
        <mxCell id="fQ_7sBPIyco7SPZkvf4i-27" value="&lt;&lt;enum&gt;&gt;&#xa;Type" style="swimlane;fontStyle=2;align=center;verticalAlign=top;childLayout=stackLayout;horizontal=1;startSize=38;horizontalStack=0;resizeParent=1;resizeLast=0;collapsible=1;marginBottom=0;rounded=0;shadow=0;strokeWidth=1;spacingBottom=-1;" parent="WIyWlLk6GJQsqaUBKTNV-1" vertex="1">
          <mxGeometry x="240" y="562" width="80" height="480" as="geometry">
            <mxRectangle x="680" y="362" width="160" height="26" as="alternateBounds" />
          </mxGeometry>
        </mxCell>
        <mxCell id="fQ_7sBPIyco7SPZkvf4i-39" value="NORMAL" style="text;align=left;verticalAlign=top;spacingLeft=4;spacingRight=4;overflow=hidden;rotatable=0;points=[[0,0.5],[1,0.5]];portConstraint=eastwest;" parent="fQ_7sBPIyco7SPZkvf4i-27" vertex="1">
          <mxGeometry y="38" width="80" height="26" as="geometry" />
        </mxCell>
        <mxCell id="fQ_7sBPIyco7SPZkvf4i-40" value="FIRE" style="text;align=left;verticalAlign=top;spacingLeft=4;spacingRight=4;overflow=hidden;rotatable=0;points=[[0,0.5],[1,0.5]];portConstraint=eastwest;" parent="fQ_7sBPIyco7SPZkvf4i-27" vertex="1">
          <mxGeometry y="64" width="80" height="26" as="geometry" />
        </mxCell>
        <mxCell id="fQ_7sBPIyco7SPZkvf4i-41" value="WATER" style="text;align=left;verticalAlign=top;spacingLeft=4;spacingRight=4;overflow=hidden;rotatable=0;points=[[0,0.5],[1,0.5]];portConstraint=eastwest;" parent="fQ_7sBPIyco7SPZkvf4i-27" vertex="1">
          <mxGeometry y="90" width="80" height="26" as="geometry" />
        </mxCell>
        <mxCell id="fQ_7sBPIyco7SPZkvf4i-45" value="GRASS" style="text;align=left;verticalAlign=top;spacingLeft=4;spacingRight=4;overflow=hidden;rotatable=0;points=[[0,0.5],[1,0.5]];portConstraint=eastwest;" parent="fQ_7sBPIyco7SPZkvf4i-27" vertex="1">
          <mxGeometry y="116" width="80" height="26" as="geometry" />
        </mxCell>
        <mxCell id="fQ_7sBPIyco7SPZkvf4i-47" value="ELECTRIC" style="text;align=left;verticalAlign=top;spacingLeft=4;spacingRight=4;overflow=hidden;rotatable=0;points=[[0,0.5],[1,0.5]];portConstraint=eastwest;" parent="fQ_7sBPIyco7SPZkvf4i-27" vertex="1">
          <mxGeometry y="142" width="80" height="26" as="geometry" />
        </mxCell>
        <mxCell id="fQ_7sBPIyco7SPZkvf4i-51" value="ICE" style="text;align=left;verticalAlign=top;spacingLeft=4;spacingRight=4;overflow=hidden;rotatable=0;points=[[0,0.5],[1,0.5]];portConstraint=eastwest;" parent="fQ_7sBPIyco7SPZkvf4i-27" vertex="1">
          <mxGeometry y="168" width="80" height="26" as="geometry" />
        </mxCell>
        <mxCell id="fQ_7sBPIyco7SPZkvf4i-53" value="FIGHTING" style="text;align=left;verticalAlign=top;spacingLeft=4;spacingRight=4;overflow=hidden;rotatable=0;points=[[0,0.5],[1,0.5]];portConstraint=eastwest;" parent="fQ_7sBPIyco7SPZkvf4i-27" vertex="1">
          <mxGeometry y="194" width="80" height="26" as="geometry" />
        </mxCell>
        <mxCell id="fQ_7sBPIyco7SPZkvf4i-54" value="POISON" style="text;align=left;verticalAlign=top;spacingLeft=4;spacingRight=4;overflow=hidden;rotatable=0;points=[[0,0.5],[1,0.5]];portConstraint=eastwest;" parent="fQ_7sBPIyco7SPZkvf4i-27" vertex="1">
          <mxGeometry y="220" width="80" height="26" as="geometry" />
        </mxCell>
        <mxCell id="fQ_7sBPIyco7SPZkvf4i-55" value="GROUND" style="text;align=left;verticalAlign=top;spacingLeft=4;spacingRight=4;overflow=hidden;rotatable=0;points=[[0,0.5],[1,0.5]];portConstraint=eastwest;" parent="fQ_7sBPIyco7SPZkvf4i-27" vertex="1">
          <mxGeometry y="246" width="80" height="26" as="geometry" />
        </mxCell>
        <mxCell id="fQ_7sBPIyco7SPZkvf4i-52" value="FLYING" style="text;align=left;verticalAlign=top;spacingLeft=4;spacingRight=4;overflow=hidden;rotatable=0;points=[[0,0.5],[1,0.5]];portConstraint=eastwest;" parent="fQ_7sBPIyco7SPZkvf4i-27" vertex="1">
          <mxGeometry y="272" width="80" height="26" as="geometry" />
        </mxCell>
        <mxCell id="fQ_7sBPIyco7SPZkvf4i-50" value="PSYCHIC" style="text;align=left;verticalAlign=top;spacingLeft=4;spacingRight=4;overflow=hidden;rotatable=0;points=[[0,0.5],[1,0.5]];portConstraint=eastwest;" parent="fQ_7sBPIyco7SPZkvf4i-27" vertex="1">
          <mxGeometry y="298" width="80" height="26" as="geometry" />
        </mxCell>
        <mxCell id="fQ_7sBPIyco7SPZkvf4i-49" value="BUG" style="text;align=left;verticalAlign=top;spacingLeft=4;spacingRight=4;overflow=hidden;rotatable=0;points=[[0,0.5],[1,0.5]];portConstraint=eastwest;" parent="fQ_7sBPIyco7SPZkvf4i-27" vertex="1">
          <mxGeometry y="324" width="80" height="26" as="geometry" />
        </mxCell>
        <mxCell id="fQ_7sBPIyco7SPZkvf4i-48" value="ROCK" style="text;align=left;verticalAlign=top;spacingLeft=4;spacingRight=4;overflow=hidden;rotatable=0;points=[[0,0.5],[1,0.5]];portConstraint=eastwest;" parent="fQ_7sBPIyco7SPZkvf4i-27" vertex="1">
          <mxGeometry y="350" width="80" height="26" as="geometry" />
        </mxCell>
        <mxCell id="fQ_7sBPIyco7SPZkvf4i-46" value="GHOST" style="text;align=left;verticalAlign=top;spacingLeft=4;spacingRight=4;overflow=hidden;rotatable=0;points=[[0,0.5],[1,0.5]];portConstraint=eastwest;" parent="fQ_7sBPIyco7SPZkvf4i-27" vertex="1">
          <mxGeometry y="376" width="80" height="26" as="geometry" />
        </mxCell>
        <mxCell id="fQ_7sBPIyco7SPZkvf4i-44" value="DRAGON" style="text;align=left;verticalAlign=top;spacingLeft=4;spacingRight=4;overflow=hidden;rotatable=0;points=[[0,0.5],[1,0.5]];portConstraint=eastwest;" parent="fQ_7sBPIyco7SPZkvf4i-27" vertex="1">
          <mxGeometry y="402" width="80" height="26" as="geometry" />
        </mxCell>
        <mxCell id="fQ_7sBPIyco7SPZkvf4i-43" value="DARK" style="text;align=left;verticalAlign=top;spacingLeft=4;spacingRight=4;overflow=hidden;rotatable=0;points=[[0,0.5],[1,0.5]];portConstraint=eastwest;" parent="fQ_7sBPIyco7SPZkvf4i-27" vertex="1">
          <mxGeometry y="428" width="80" height="26" as="geometry" />
        </mxCell>
        <mxCell id="fQ_7sBPIyco7SPZkvf4i-42" value="STEEL" style="text;align=left;verticalAlign=top;spacingLeft=4;spacingRight=4;overflow=hidden;rotatable=0;points=[[0,0.5],[1,0.5]];portConstraint=eastwest;" parent="fQ_7sBPIyco7SPZkvf4i-27" vertex="1">
          <mxGeometry y="454" width="80" height="26" as="geometry" />
        </mxCell>
      </root>
    </mxGraphModel>
  </diagram>
</mxfile>
